<svg width="38" height="38" viewBox="0 0 38 38" xmlns="http://www.w3.org/2000/svg">
    <path d="M19.215 8.636c3.398 0 6.537 1.602 8.53 4.318v-1.551a1.026 1.026 0 0 1 2.05 0v2.388a2.802 2.802 0 0 1-1.35 2.399 2.797 2.797 0 0 1-1.457.408h-2.472a1.026 1.026 0 0 1 0-2.05h1.838a8.578 8.578 0 0 0-7.139-3.86c-4.702 0-8.527 3.825-8.527 8.528s3.825 8.528 8.527 8.528c.282 0 .525-.01.764-.029a1.023 1.023 0 0 1 .868 1.684c-.176.21-.425.337-.697.36-.29.024-.591.036-.894.036-2.866 0-5.523-1.1-7.522-3.098a10.51 10.51 0 0 1-3.098-7.481c0-2.826 1.1-5.482 3.098-7.48a10.512 10.512 0 0 1 7.481-3.1zm4.192 18.032a1.027 1.027 0 0 1 1 1.791c-.256.143-.526.279-.801.403a1.029 1.029 0 0 1-1.357-.512 1.027 1.027 0 0 1 .513-1.356c.218-.098.435-.208.644-.326zm3.37-2.77a1.02 1.02 0 0 1 .762.193c.219.163.362.402.402.673.04.271-.028.542-.192.762-.178.24-.368.473-.564.695a1.026 1.026 0 0 1-1.538-1.36 8.33 8.33 0 0 0 .456-.56 1.02 1.02 0 0 1 .674-.402zm-7.562-10.9c.566 0 1.026.46 1.026 1.025v5.193c0 .275-.107.532-.3.726l-3.206 3.205a1.018 1.018 0 0 1-.726.302c-.274 0-.532-.107-.725-.302-.194-.193-.3-.45-.3-.724 0-.274.106-.531.3-.726l2.906-2.906v-4.768c0-.566.46-1.025 1.025-1.025zm8.822 7.397a1.027 1.027 0 0 1 1.557 1.08c-.065.294-.141.586-.228.869a1.02 1.02 0 0 1-1.283.677 1.028 1.028 0 0 1-.677-1.284c.07-.229.132-.463.183-.697l.037-.13c.076-.211.218-.391.41-.515z" fill="#303030" fill-rule="evenodd"/>
</svg>
